<svg xmlns="http://www.w3.org/2000/svg" width="885.492" height="817.212" viewBox="0 0 885.492 817.212"><defs><style>.a{fill:#17b806;opacity:0.04;}</style></defs><path class="a" d="M1126.141,334.193c1.434,8.7,2.485,17.454,3.16,26.191,11.376,147-21.812,311.04-130.81,416.622C905.318,867.258,745.879,914.961,615.58,900.926,478.35,886.144,322.859,793.608,299.208,656.348c-21-121.849,109.563-195.535,223.966-212.79,34.683-5.23,98.367-5.039,129.06-21.693,75.923-41.19,56.585-174.581,122.77-231.308,75.268-64.51,196.189-63.1,272.447-1.7C1091.919,224.665,1116.952,278.458,1126.141,334.193Z" transform="translate(-233.23 -162.859) rotate(4)"/></svg>