<svg xmlns="http://www.w3.org/2000/svg" width="1038.847" height="985.046" viewBox="0 0 1038.847 985.046"><defs><style>.a{fill:none;stroke:#a7a7a7;stroke-miterlimit:10;stroke-width:0.506px;}.b{fill:#17b806;}</style></defs><g transform="translate(-187.979 -140.984) rotate(4)"><path class="a" d="M1244.487,448.481c1.209,28.986-.524,58.241-3.933,87.086-13.967,118.194-59.133,238.3-151.79,317.3-97.216,82.882-231.352,109.351-359.17,128.816-99.147,15.1-206.62,26.592-294.233-19.82C357.669,920.7,310.657,841.541,279.62,764.108c-27.539-68.7-27.907-147.078,29.723-202.462,36.255-34.84,85.26-54.964,134.994-66.132s100.922-14.135,151.639-19.508c39.217-4.154,80.907-10.92,110.014-36.779,38.336-34.059,43.2-90.07,68.447-134.026,37.557-65.4,120.527-124.645,197.429-132.227,51.618-5.088,102.819,25.9,148.415,49.394,54.058,27.852,91.44,80.291,109.325,136.91C1238.743,388.206,1243.223,418.2,1244.487,448.481Z" transform="translate(0 46.533)"/><path class="b" d="M1126.141,334.193c1.434,8.7,2.485,17.454,3.16,26.191,11.376,147-21.812,311.04-130.81,416.622C905.318,867.258,745.879,914.961,615.58,900.926,478.35,886.144,322.859,793.608,299.208,656.348c-21-121.849,109.563-195.535,223.966-212.79,34.683-5.23,98.367-5.039,129.06-21.693,75.923-41.19,56.585-174.581,122.77-231.308,75.268-64.51,196.189-63.1,272.447-1.7C1091.919,224.665,1116.952,278.458,1126.141,334.193Z" transform="translate(31.499 19.898)"/><path class="a" d="M1192.041,330.832c7.989,27.89,13.181,56.733,16.647,85.572,14.2,118.166-1.467,245.521-72.96,344.082C1060.719,863.9,936.558,921.151,816.9,970.114c-92.823,37.981-194.582,74.411-290.647,49.893-85.19-21.742-149.494-87.635-197.862-155.6C285.477,804.1,266.7,728,309.7,660.628c27.049-42.384,69.951-73.465,115.669-96.01s94.77-37.461,142.8-54.6c37.141-13.256,76.075-29.633,98.287-61.609,29.256-42.114,20.825-97.7,35.029-146.358,21.131-72.393,87.853-149.482,160.82-174.927,48.974-17.08,106.025,1.011,155.863,13.126,59.092,14.366,107.752,56.549,138.445,107.378C1172.293,273.6,1183.695,301.694,1192.041,330.832Z" transform="translate(21.15 0)"/></g></svg>