<svg xmlns="http://www.w3.org/2000/svg" xmlns:xlink="http://www.w3.org/1999/xlink" width="829.669" height="242.968" viewBox="0 0 829.669 242.968"><defs><linearGradient id="a" x1="1.034" y1="-2.738" x2="-0.261" y2="-2.062" gradientUnits="objectBoundingBox"><stop offset="0" stop-color="#00a0ff"/><stop offset="0.007" stop-color="#00a1ff"/><stop offset="0.26" stop-color="#00beff"/><stop offset="0.512" stop-color="#00d2ff"/><stop offset="0.76" stop-color="#00dfff"/><stop offset="1" stop-color="#00e3ff"/></linearGradient><linearGradient id="b" x1="1.224" y1="-7.655" x2="-1.151" y2="-7.655" gradientUnits="objectBoundingBox"><stop offset="0" stop-color="#ffe000"/><stop offset="0.409" stop-color="#ffbd00"/><stop offset="0.775" stop-color="orange"/><stop offset="1" stop-color="#ff9c00"/></linearGradient><linearGradient id="c" x1="0.455" y1="-5.899" x2="-0.905" y2="-4.113" gradientUnits="objectBoundingBox"><stop offset="0" stop-color="#ff3a44"/><stop offset="1" stop-color="#c31162"/></linearGradient><linearGradient id="d" x1="-0.593" y1="-5.327" x2="0.015" y2="-4.529" gradientUnits="objectBoundingBox"><stop offset="0" stop-color="#32a071"/><stop offset="0.068" stop-color="#2da771"/><stop offset="0.476" stop-color="#15cf74"/><stop offset="0.801" stop-color="#06e775"/><stop offset="1" stop-color="#00f076"/></linearGradient></defs><g transform="translate(-14.066 -286.189)"><path d="M813.007,529.157H44.794a30.651,30.651,0,0,1-30.728-30.371V316.56a30.65,30.65,0,0,1,30.728-30.371H813.007a30.65,30.65,0,0,1,30.728,30.371V498.786A30.651,30.651,0,0,1,813.007,529.157Z"/><path d="M813.007,291.056a25.687,25.687,0,0,1,25.8,25.5V498.786a25.687,25.687,0,0,1-25.8,25.5H44.794a25.686,25.686,0,0,1-25.8-25.5V316.56a25.686,25.686,0,0,1,25.8-25.5H813.007m0-4.867H44.794A30.65,30.65,0,0,0,14.066,316.56V498.786a30.651,30.651,0,0,0,30.728,30.371H813.007a30.651,30.651,0,0,0,30.728-30.371V316.56A30.65,30.65,0,0,0,813.007,286.189Z" fill="#a6a6a6"/><path d="M305.48,348.411c0,5.072-1.537,9.135-4.563,12.164a18.075,18.075,0,0,1-13.567,5.4,18.757,18.757,0,0,1-13.559-5.459,19.275,19.275,0,0,1,0-27.137,18.659,18.659,0,0,1,13.559-5.489,19.5,19.5,0,0,1,7.567,1.541,14.988,14.988,0,0,1,5.761,4.062l-3.211,3.2c-2.465-2.878-5.823-4.3-10.117-4.3a14.163,14.163,0,0,0-10.079,4.033,15.178,15.178,0,0,0,0,21.031,14.3,14.3,0,0,0,10.079,4.032,14.1,14.1,0,0,0,10.294-4.062,11.374,11.374,0,0,0,3.088-7.388H287.35v-4.389H305.2A12.339,12.339,0,0,1,305.48,348.411Z" fill="#fff" stroke="#fff" stroke-miterlimit="10" stroke-width="0.16"/><path d="M333.8,333.2h-16.77v11.541h15.118v4.389H317.034v11.541H333.8v4.473H312.286V328.724H333.8Z" fill="#fff" stroke="#fff" stroke-miterlimit="10" stroke-width="0.16"/><path d="M353.793,365.139h-4.748V333.2H338.759v-4.471h25.327V333.2H353.793Z" fill="#fff" stroke="#fff" stroke-miterlimit="10" stroke-width="0.16"/><path d="M382.416,365.139V328.724h4.74v36.415Z" fill="#fff" stroke="#fff" stroke-miterlimit="10" stroke-width="0.16"/><path d="M408.167,365.139h-4.709V333.2H393.133v-4.471h25.358V333.2H408.167Z" fill="#fff" stroke="#fff" stroke-miterlimit="10" stroke-width="0.16"/><path d="M466.443,360.453a19.316,19.316,0,0,1-27.041,0,19.55,19.55,0,0,1,0-27.045,19.244,19.244,0,0,1,27.01.031,19.469,19.469,0,0,1,.031,27.014Zm-23.53-3.052a14.287,14.287,0,0,0,20.02,0,15.391,15.391,0,0,0,0-20.94,14.287,14.287,0,0,0-20.02,0,15.391,15.391,0,0,0,0,20.94Z" fill="#fff" stroke="#fff" stroke-miterlimit="10" stroke-width="0.16"/><path d="M478.535,365.139V328.724H484.3l17.914,28.321h.208l-.208-7v-21.32h4.74v36.415H502l-18.76-29.719h-.207l.207,7.031v22.688Z" fill="#fff" stroke="#fff" stroke-miterlimit="10" stroke-width="0.16"/><path d="M432.8,418.318c-14.435,0-26.227,10.858-26.227,25.838,0,14.859,11.792,25.83,26.227,25.83,14.465,0,26.257-10.971,26.257-25.83C459.061,429.176,447.269,418.318,432.8,418.318Zm0,41.495c-7.921,0-14.735-6.462-14.735-15.657,0-9.316,6.814-15.664,14.735-15.664s14.764,6.348,14.764,15.664C447.568,453.351,440.724,459.813,432.8,459.813Zm-57.225-41.495c-14.465,0-26.227,10.858-26.227,25.838,0,14.859,11.762,25.83,26.227,25.83s26.227-10.971,26.227-25.83C401.806,429.176,390.037,418.318,375.579,418.318Zm0,41.495c-7.928,0-14.765-6.462-14.765-15.657,0-9.316,6.837-15.664,14.765-15.664s14.735,6.348,14.735,15.664C390.314,453.351,383.5,459.813,375.579,459.813Zm-68.094-33.576v10.979h26.526c-.776,6.136-2.85,10.645-6.03,13.789-3.872,3.8-9.9,8.01-20.5,8.01a29.156,29.156,0,0,1,0-58.312,28.308,28.308,0,0,1,19.989,7.828l7.828-7.737a38.937,38.937,0,0,0-27.817-11.063c-22.386,0-41.2,18-41.2,40.128s18.813,40.127,41.2,40.127c12.1,0,21.187-3.918,28.331-11.267,7.322-7.236,9.6-17.41,9.6-25.625a36.323,36.323,0,0,0-.6-6.857Zm278.447,8.512c-2.16-5.778-8.82-16.431-22.387-16.431-13.443,0-24.636,10.47-24.636,25.838a25.421,25.421,0,0,0,25.927,25.83,25.984,25.984,0,0,0,21.786-11.449l-8.911-5.869c-2.973,4.3-7.022,7.145-12.875,7.145-5.815,0-9.986-2.635-12.66-7.829l34.961-14.3Zm-35.646,8.6a14.251,14.251,0,0,1,13.651-15.065c4.563,0,8.435,2.255,9.726,5.483ZM521.87,468.415h11.492V392.487H521.87Zm-18.821-44.342h-.385a18.211,18.211,0,0,0-13.743-5.755c-13.09,0-25.059,11.359-25.059,25.921,0,14.48,11.969,25.747,25.059,25.747a17.939,17.939,0,0,0,13.743-5.869h.385v3.7c0,9.879-5.339,15.186-13.951,15.186-7.022,0-11.377-5.011-13.175-9.225l-9.994,4.123A24.935,24.935,0,0,0,489.1,493.183c13.474,0,24.844-7.836,24.844-26.9V419.89H503.049ZM489.9,459.813c-7.92,0-14.55-6.553-14.55-15.574,0-9.1,6.63-15.747,14.55-15.747,7.806,0,13.959,6.644,13.959,15.747C503.863,453.26,497.71,459.813,489.9,459.813Zm149.832-67.326H612.25v75.928h11.462V439.647h16.024c12.73,0,25.213-9.105,25.213-23.584S652.436,392.487,639.736,392.487Zm.3,36.6H623.712V403.049h16.324a13.025,13.025,0,1,1,0,26.036Zm70.853-10.911c-8.282,0-16.893,3.614-20.435,11.624l10.171,4.214c2.189-4.214,6.215-5.58,10.471-5.58,5.946,0,11.976,3.53,12.069,9.763v.8a25.427,25.427,0,0,0-11.977-2.938c-10.955,0-22.117,5.96-22.117,17.084,0,10.174,8.973,16.726,19.06,16.726,7.713,0,11.969-3.439,14.642-7.441h.392v5.869h11.069V439.168C734.234,425.706,724.063,418.174,710.889,418.174Zm-1.383,41.608c-3.749,0-8.973-1.838-8.973-6.431,0-5.877,6.515-8.132,12.154-8.132a20.748,20.748,0,0,1,10.478,2.552A13.859,13.859,0,0,1,709.506,459.782Zm65.059-39.945-13.174,32.914H761l-13.62-32.914h-12.36l20.464,46-11.676,25.6h11.976l31.535-71.592ZM671.249,468.415h11.492V392.487H671.249Z" fill="#fff"/><path d="M78.2,331.98c-1.805,1.869-2.85,4.777-2.85,8.542V474.853c0,3.766,1.045,6.674,2.85,8.543l.446.41,76.16-75.245v-1.777L78.642,331.54Z" fill="url(#a)"/><path d="M180.161,433.655,154.8,408.561v-1.777l25.39-25.094.568.327,30.068,16.909c8.581,4.8,8.581,12.7,0,17.524L180.76,433.329Z" fill="url(#b)"/><path d="M180.76,433.329,154.8,407.673,78.2,483.4c2.85,2.96,7.5,3.318,12.784.356l89.78-50.423" fill="url(#c)"/><path d="M180.76,382.017,90.98,331.594c-5.286-2.931-9.934-2.574-12.784.386L154.8,407.673Z" fill="url(#d)"/></g></svg>