<svg xmlns="http://www.w3.org/2000/svg" width="577.339" height="167.056" viewBox="0 0 577.339 167.056"><g transform="translate(-91.055 -105.121)"><path d="M350.1,175.806a8.307,8.307,0,0,1,3.306.662,9.106,9.106,0,0,1,2.707,1.763,8,8,0,0,1,1.825,2.582,7.846,7.846,0,0,1,.661,3.241v18.822a7.234,7.234,0,0,1-.786,3.434,12.618,12.618,0,0,1-1.983,2.737,44.951,44.951,0,0,1-30.849,11.772,39.7,39.7,0,0,1-10.67-1.574,42.18,42.18,0,0,1-28.866-29.053,40.471,40.471,0,0,1-1.51-11.112A42.176,42.176,0,0,1,285.379,168a42.641,42.641,0,0,1,4.124-10.043,41.884,41.884,0,0,1,6.421-8.531,41.193,41.193,0,0,1,8.373-6.61,42.075,42.075,0,0,1,9.948-4.312,39.744,39.744,0,0,1,11.111-1.543,41.628,41.628,0,0,1,16.337,3.118,43.357,43.357,0,0,1,13.693,9.347,8.249,8.249,0,0,1,1.857,2.739,8.1,8.1,0,0,1,.6,3.053,7.448,7.448,0,0,1-.694,3.148,8.694,8.694,0,0,1-1.859,2.644,9.177,9.177,0,0,1-2.741,1.826,8.055,8.055,0,0,1-3.278.692,8.245,8.245,0,0,1-3.024-.565A7.709,7.709,0,0,1,343.6,161.2a24.443,24.443,0,0,0-8.477-5.541,26.8,26.8,0,0,0-9.61-1.763,24.122,24.122,0,0,0-9.549,1.919,24.9,24.9,0,0,0-13.3,13.233,25.36,25.36,0,0,0-.061,19.525A25.029,25.029,0,0,0,315.886,202a24.784,24.784,0,0,0,10.034,2.013,30.931,30.931,0,0,0,8.187-1.064,22.393,22.393,0,0,0,7.618-3.883v-6.637h-6.8a8.152,8.152,0,0,1-5.887-2.453,8.271,8.271,0,0,1-1.731-2.678,8.486,8.486,0,0,1-.63-3.241,8.264,8.264,0,0,1,.63-3.212,9.145,9.145,0,0,1,1.731-2.705,7.68,7.68,0,0,1,2.613-1.858,8.069,8.069,0,0,1,3.274-.66Z" fill="#1a1818"/><path d="M362.44,195.864a31.071,31.071,0,0,1,2.77-12.088,32.748,32.748,0,0,1,16.9-16.65,31.525,31.525,0,0,1,12.119-2.612h.567a8.631,8.631,0,0,1,6.389,2.39,8.2,8.2,0,0,1,2.236,5.92,7.92,7.92,0,0,1-.692,3.336,8.765,8.765,0,0,1-1.857,2.644,8.229,8.229,0,0,1-2.771,1.763,9.132,9.132,0,0,1-3.368.629,15,15,0,0,0-5.948,1.2,15.738,15.738,0,0,0-4.911,3.274,15.947,15.947,0,0,0-3.368,4.88,15.233,15.233,0,0,0-1.323,6.013v20.46a8.442,8.442,0,0,1-.629,3.273,7.755,7.755,0,0,1-1.763,2.614,8.482,8.482,0,0,1-2.612,1.73,8.035,8.035,0,0,1-3.18.629,8.731,8.731,0,0,1-3.274-.629,8.56,8.56,0,0,1-2.738-1.73,8.329,8.329,0,0,1-1.858-2.614,7.76,7.76,0,0,1-.692-3.273Z" fill="#1a1818"/><path d="M389.373,209.675a29.8,29.8,0,0,1,2.424-11.959,31.109,31.109,0,0,1,16.37-16.4,30.634,30.634,0,0,1,23.891,0,30.86,30.86,0,0,1,9.758,6.61,31.528,31.528,0,0,1,6.578,9.79,30.644,30.644,0,0,1,0,23.89,30.86,30.86,0,0,1-16.336,16.3,30.634,30.634,0,0,1-23.891,0,31.615,31.615,0,0,1-9.76-6.576,30.934,30.934,0,0,1-6.61-9.729A29.569,29.569,0,0,1,389.373,209.675Zm16.746,0a13.325,13.325,0,0,0,1.105,5.415,13.915,13.915,0,0,0,3.029,4.407,14.178,14.178,0,0,0,4.447,2.96,13.59,13.59,0,0,0,5.364,1.069,13.98,13.98,0,0,0,5.458-1.069,13.734,13.734,0,0,0,4.449-2.96,14.261,14.261,0,0,0,3-4.407,13.841,13.841,0,0,0,0-10.829,14.292,14.292,0,0,0-3-4.406,13.758,13.758,0,0,0-4.449-2.957,14,14,0,0,0-5.458-1.072A13.61,13.61,0,0,0,414.7,196.9a14.2,14.2,0,0,0-4.447,2.957,13.944,13.944,0,0,0-3.029,4.406A13.341,13.341,0,0,0,406.119,209.675Z" fill="#1a1818"/><path d="M500.321,175.238a9.018,9.018,0,0,1,2.581.44,9.123,9.123,0,0,1,2.74,1.385,7.434,7.434,0,0,1,2.139,2.518,7.964,7.964,0,0,1,.852,3.841,8.464,8.464,0,0,1-.82,3.715,7.911,7.911,0,0,1-2.267,2.832l-29.4,29.714h25.5a9.069,9.069,0,0,1,3.306.6,7.9,7.9,0,0,1,2.676,1.7,8.358,8.358,0,0,1,1.793,2.548,7.511,7.511,0,0,1,.661,3.149,7.938,7.938,0,0,1-.661,3.211,8.549,8.549,0,0,1-1.793,2.642,8.446,8.446,0,0,1-2.676,1.8,8.324,8.324,0,0,1-3.306.662H457.89a7.926,7.926,0,0,1-3.211-.662,8.509,8.509,0,0,1-4.439-4.438,7.938,7.938,0,0,1-.661-3.211,6.781,6.781,0,0,1,.567-3.021,8.779,8.779,0,0,1,1.888-2.708l29.777-30.156H458.33a7.939,7.939,0,0,1-3.212-.66,8.142,8.142,0,0,1-2.611-1.8,8.819,8.819,0,0,1-1.763-2.642,8.07,8.07,0,0,1-.661-3.274,7.7,7.7,0,0,1,.661-3.179,8.969,8.969,0,0,1,1.763-2.614,7.762,7.762,0,0,1,2.611-1.761,8.247,8.247,0,0,1,3.212-.63Z" fill="#1a1818"/><path d="M544.911,220.758a29.57,29.57,0,0,1-11.931-2.425,31.628,31.628,0,0,1-9.757-6.579,30.886,30.886,0,0,1-6.61-9.728,30.618,30.618,0,0,1,0-23.889,31.121,31.121,0,0,1,16.367-16.4,30.516,30.516,0,0,1,23.765-.031,31.423,31.423,0,0,1,9.7,6.486,31,31,0,0,1,6.61,9.63,30.278,30.278,0,0,1,2.58,11.773v22.6a8.443,8.443,0,0,1-.661,3.37,8.586,8.586,0,0,1-1.825,2.708,8.432,8.432,0,0,1-2.739,1.823,8.522,8.522,0,0,1-3.336.664,7.87,7.87,0,0,1-7.051-3.968,32.509,32.509,0,0,1-7.175,2.928A29.775,29.775,0,0,1,544.911,220.758Zm-.031-16.812a13.938,13.938,0,0,0,5.459-1.07,13.753,13.753,0,0,0,4.446-2.958,14.256,14.256,0,0,0,3-4.4,13.846,13.846,0,0,0,0-10.831,14.3,14.3,0,0,0-3-4.406,13.817,13.817,0,0,0-4.446-2.958,14.01,14.01,0,0,0-5.459-1.07,13.584,13.584,0,0,0-5.364,1.07,14.28,14.28,0,0,0-4.452,2.958,14.034,14.034,0,0,0-3.026,4.406,13.846,13.846,0,0,0,0,10.831,14,14,0,0,0,3.026,4.4,14.211,14.211,0,0,0,4.452,2.958A13.514,13.514,0,0,0,544.88,203.946Z" fill="#1a1818"/><path d="M582.126,190.593a31.126,31.126,0,0,1,2.771-12.088A32.726,32.726,0,0,1,601.8,161.854a31.5,31.5,0,0,1,12.117-2.612h.567a8.641,8.641,0,0,1,6.391,2.391,8.212,8.212,0,0,1,2.233,5.919,7.917,7.917,0,0,1-.692,3.336,8.684,8.684,0,0,1-1.859,2.644,8.153,8.153,0,0,1-2.768,1.762,9.141,9.141,0,0,1-3.368.631,14.993,14.993,0,0,0-5.949,1.195,15.737,15.737,0,0,0-4.912,3.274,15.947,15.947,0,0,0-3.365,4.879,15.185,15.185,0,0,0-1.323,6.014v20.458a8.387,8.387,0,0,1-.632,3.274,7.818,7.818,0,0,1-1.761,2.614,8.5,8.5,0,0,1-2.613,1.729,8.05,8.05,0,0,1-3.179.632,8.752,8.752,0,0,1-3.273-.632,8.546,8.546,0,0,1-2.739-1.729,8.343,8.343,0,0,1-1.858-2.614,7.744,7.744,0,0,1-.694-3.274Z" fill="#1a1818"/><path d="M637.673,236.51a29.528,29.528,0,0,1-11.93-2.423,31.584,31.584,0,0,1-9.759-6.579,30.928,30.928,0,0,1-6.61-9.725,30.657,30.657,0,0,1,0-23.891,31.1,31.1,0,0,1,16.369-16.4,30.522,30.522,0,0,1,23.765-.034,31.471,31.471,0,0,1,9.694,6.485,31.009,31.009,0,0,1,6.611,9.633,30.285,30.285,0,0,1,2.581,11.773v22.6a8.509,8.509,0,0,1-8.561,8.561,7.864,7.864,0,0,1-7.05-3.964,32.3,32.3,0,0,1-7.179,2.925A29.754,29.754,0,0,1,637.673,236.51Zm-.03-16.808a14.026,14.026,0,0,0,5.458-1.068,13.8,13.8,0,0,0,4.445-2.96,14.236,14.236,0,0,0,3-4.407,13.829,13.829,0,0,0,0-10.829,14.24,14.24,0,0,0-3-4.408,13.789,13.789,0,0,0-4.445-2.957A14.01,14.01,0,0,0,637.643,192a13.612,13.612,0,0,0-5.366,1.071,14.221,14.221,0,0,0-4.447,2.957,14.03,14.03,0,0,0-3.031,4.408,13.841,13.841,0,0,0,0,10.829,14.026,14.026,0,0,0,3.031,4.407,14.229,14.229,0,0,0,4.447,2.96A13.628,13.628,0,0,0,637.643,219.7Z" fill="#1a1818"/><path d="M209.28,156.835a18.353,18.353,0,0,0-5.942-3.952,18.665,18.665,0,0,0-7.29-1.43,18.138,18.138,0,0,0-7.165,1.43,18.985,18.985,0,0,0-5.942,3.952,18.675,18.675,0,0,0-4.046,5.886,18.481,18.481,0,0,0,0,14.465,18.652,18.652,0,0,0,4.046,5.886,18.968,18.968,0,0,0,5.942,3.952,18.121,18.121,0,0,0,7.165,1.431,18.647,18.647,0,0,0,7.29-1.431,18.337,18.337,0,0,0,5.942-3.952,19,19,0,0,0,4-5.886,18.458,18.458,0,0,0,0-14.465A19.024,19.024,0,0,0,209.28,156.835Z" fill="#1a1818"/><path d="M233.017,105.121H116.146a25.093,25.093,0,0,0-25.091,25.093v116.87a25.093,25.093,0,0,0,25.091,25.093H233.017a25.093,25.093,0,0,0,25.091-25.093V130.214A25.093,25.093,0,0,0,233.017,105.121Zm.873,48.855a41.214,41.214,0,0,1,1.556,27.667,40.489,40.489,0,0,1-4.793,10.343,25.977,25.977,0,0,1,4.751,7.737,32.506,32.506,0,0,1,2.06,12.53,33.237,33.237,0,0,1-2.733,14.214,25.916,25.916,0,0,1-7.274,9.419,29.1,29.1,0,0,1-10.428,5.255,45.236,45.236,0,0,1-12.193,1.638q-1.514,0-2.9-.083t-2.817-.085a16.939,16.939,0,0,0-5.3.8,17.463,17.463,0,0,0-5.466,3.322,10.184,10.184,0,0,1-6.644,2.608,11.069,11.069,0,0,1-4.414-.925,13.458,13.458,0,0,1-3.827-2.48,12.211,12.211,0,0,1-2.691-3.62,9.778,9.778,0,0,1-1.008-4.344,10.789,10.789,0,0,1,2.1-5.995,21.372,21.372,0,0,1,5.928-5.7,35.776,35.776,0,0,1,9.124-4.263,38.312,38.312,0,0,1,11.689-1.688q5.048,0,8.284-.333a16.574,16.574,0,0,0,5.13-1.209,5.109,5.109,0,0,0,2.607-2.376,9.2,9.2,0,0,0,.714-3.918,8.243,8.243,0,0,0-.63-3.6,9.569,9.569,0,0,0-1.135-1.851,39.953,39.953,0,0,1-17.492,3.868,39.5,39.5,0,0,1-15.936-3.237,42.2,42.2,0,0,1-13.035-8.788,41.315,41.315,0,0,1-8.829-12.992,40.937,40.937,0,0,1,0-31.914,41.562,41.562,0,0,1,21.864-21.907,40.949,40.949,0,0,1,31.914,0c1.049.454,2.064.951,3.056,1.474a13.742,13.742,0,1,1,18.652,20.184C233.813,153.811,233.853,153.892,233.89,153.976Z" fill="#1a1818"/></g></svg>