<?xml version="1.0" encoding="utf-8"?>
<!-- Generator: Adobe Illustrator 16.0.0, SVG Export Plug-In . SVG Version: 6.00 Build 0)  -->
<!DOCTYPE svg PUBLIC "-//W3C//DTD SVG 1.1//EN" "http://www.w3.org/Graphics/SVG/1.1/DTD/svg11.dtd">
<svg version="1.1" id="grozara-logo" xmlns="http://www.w3.org/2000/svg" xmlns:xlink="http://www.w3.org/1999/xlink" x="0px" y="0px"
	 width="800px" height="400px" viewBox="0 0 800 400" enable-background="new 0 0 800 400" xml:space="preserve">
<text transform="matrix(1 0 0 1 237.7651 224.7773)" display="none" font-family="'AristaProAlternate-Bold'" font-size="104.9245">Grozara</text>
<g>
	<path d="M350.097,175.806c1.175,0,2.276,0.221,3.306,0.662c1.028,0.439,1.93,1.028,2.707,1.763
		c0.776,0.734,1.385,1.594,1.826,2.582c0.44,0.986,0.661,2.067,0.661,3.242v18.822c0,1.302-0.263,2.445-0.787,3.434
		c-0.526,0.985-1.186,1.896-1.982,2.737c-4.953,4.282-9.969,7.313-15.047,9.097c-5.079,1.785-10.346,2.676-15.802,2.676
		c-3.651-0.045-7.208-0.565-10.671-1.574c-3.462-1.007-6.716-2.412-9.758-4.219c-3.044-1.804-5.824-3.966-8.341-6.483
		c-2.519-2.518-4.691-5.321-6.516-8.405s-3.243-6.399-4.25-9.945c-1.007-3.545-1.511-7.25-1.511-11.112
		c0-3.819,0.481-7.513,1.447-11.079c0.965-3.568,2.34-6.915,4.124-10.042c1.783-3.125,3.923-5.97,6.421-8.531
		c2.497-2.561,5.288-4.763,8.373-6.609c3.085-1.848,6.4-3.284,9.948-4.313c3.546-1.027,7.25-1.543,11.111-1.543
		c5.96,0,11.405,1.038,16.337,3.118c4.932,2.076,9.496,5.192,13.693,9.347c0.839,0.839,1.458,1.753,1.857,2.739
		c0.398,0.987,0.598,2.005,0.598,3.053c0,1.093-0.231,2.141-0.694,3.148c-0.462,1.008-1.082,1.889-1.859,2.644
		c-0.776,0.756-1.69,1.364-2.741,1.827c-1.05,0.461-2.144,0.691-3.278,0.691c-1.051,0-2.058-0.188-3.025-0.564
		c-0.967-0.38-1.849-0.965-2.647-1.764c-2.563-2.52-5.388-4.364-8.477-5.541c-3.089-1.175-6.292-1.763-9.61-1.763
		c-3.362,0-6.544,0.64-9.548,1.919c-3.005,1.278-5.642,3.037-7.91,5.283c-2.27,2.242-4.066,4.893-5.389,7.951
		c-1.325,3.062-1.985,6.353-1.985,9.874c0,3.395,0.641,6.612,1.925,9.651c1.281,3.039,3.049,5.702,5.3,7.986
		c2.25,2.284,4.913,4.096,7.983,5.437c3.072,1.342,6.416,2.013,10.035,2.013c2.855,0,5.584-0.353,8.187-1.063
		c2.602-0.71,5.14-2.005,7.618-3.884v-6.637h-6.799c-1.175,0-2.267-0.221-3.274-0.661c-1.007-0.439-1.879-1.038-2.613-1.792
		c-0.734-0.756-1.312-1.648-1.73-2.677c-0.42-1.028-0.63-2.108-0.63-3.241c0-1.134,0.209-2.204,0.63-3.212
		c0.418-1.006,0.996-1.908,1.73-2.706c0.734-0.798,1.606-1.417,2.613-1.858c1.007-0.44,2.099-0.66,3.274-0.66L350.097,175.806z"/>
	<path d="M362.44,195.864c0.126-4.279,1.049-8.31,2.77-12.088c1.72-3.775,4.018-7.082,6.894-9.914
		c2.875-2.833,6.211-5.079,10.009-6.737c3.799-1.658,7.838-2.528,12.119-2.611h0.566c2.771,0.04,4.901,0.84,6.39,2.39
		c1.49,1.556,2.235,3.526,2.235,5.92c0,1.218-0.23,2.328-0.691,3.336c-0.463,1.006-1.081,1.888-1.857,2.644
		c-0.777,0.755-1.7,1.345-2.771,1.763c-1.07,0.42-2.192,0.629-3.368,0.629c-2.1,0-4.082,0.399-5.949,1.195
		c-1.869,0.799-3.505,1.889-4.911,3.274c-1.406,1.385-2.53,3.013-3.368,4.88c-0.84,1.868-1.281,3.872-1.322,6.013v20.46
		c0,1.176-0.21,2.265-0.629,3.273c-0.419,1.008-1.008,1.88-1.763,2.614c-0.756,0.734-1.628,1.31-2.613,1.729
		c-0.987,0.42-2.046,0.629-3.179,0.629c-1.134,0-2.225-0.209-3.274-0.629c-1.05-0.42-1.963-0.995-2.738-1.729
		c-0.777-0.734-1.396-1.606-1.858-2.614c-0.462-1.009-0.691-2.098-0.691-3.273V195.864z"/>
	<path d="M389.373,209.675c0-4.237,0.808-8.223,2.424-11.959c1.616-3.735,3.818-6.997,6.61-9.79c2.791-2.791,6.044-4.995,9.76-6.61
		c3.714-1.616,7.688-2.425,11.929-2.425c4.238,0,8.226,0.809,11.962,2.425c3.734,1.615,6.988,3.819,9.759,6.61
		c2.77,2.793,4.962,6.054,6.578,9.79c1.614,3.736,2.424,7.722,2.424,11.959c0,4.242-0.81,8.217-2.424,11.932
		c-1.616,3.716-3.809,6.959-6.578,9.729c-2.771,2.768-6.024,4.961-9.759,6.576c-3.736,1.616-7.724,2.425-11.962,2.425
		c-4.24,0-8.215-0.809-11.929-2.425c-3.716-1.615-6.969-3.809-9.76-6.576c-2.792-2.77-4.994-6.013-6.61-9.729
		C390.181,217.892,389.373,213.917,389.373,209.675z M406.119,209.675c0,1.934,0.369,3.738,1.104,5.415
		c0.734,1.681,1.746,3.148,3.029,4.407c1.282,1.261,2.765,2.246,4.447,2.96s3.471,1.069,5.364,1.069
		c1.935,0,3.753-0.355,5.458-1.069c1.703-0.714,3.186-1.699,4.448-2.96c1.261-1.259,2.261-2.727,2.997-4.407
		c0.736-1.677,1.104-3.481,1.104-5.415c0-1.93-0.367-3.733-1.104-5.414c-0.736-1.678-1.736-3.146-2.997-4.406
		c-1.263-1.257-2.745-2.244-4.448-2.957c-1.705-0.713-3.523-1.071-5.458-1.071c-1.894,0-3.682,0.358-5.364,1.071
		s-3.165,1.7-4.447,2.957c-1.283,1.26-2.295,2.729-3.029,4.406C406.488,205.941,406.119,207.745,406.119,209.675z"/>
	<path d="M500.321,175.238c0.756,0,1.614,0.147,2.581,0.44c0.965,0.293,1.877,0.754,2.739,1.385c0.859,0.629,1.573,1.469,2.14,2.518
		c0.568,1.049,0.852,2.33,0.852,3.841c0,1.343-0.274,2.58-0.819,3.714c-0.548,1.132-1.303,2.077-2.268,2.832l-29.399,29.714h25.496
		c1.176,0,2.276,0.201,3.307,0.601c1.028,0.396,1.918,0.966,2.676,1.699c0.756,0.733,1.353,1.583,1.793,2.548
		c0.44,0.966,0.661,2.017,0.661,3.148c0,1.133-0.221,2.204-0.661,3.211c-0.44,1.006-1.037,1.887-1.793,2.643
		c-0.758,0.758-1.647,1.354-2.676,1.796c-1.03,0.439-2.131,0.662-3.307,0.662H457.89c-1.135,0-2.205-0.223-3.211-0.662
		c-1.008-0.441-1.889-1.038-2.645-1.796c-0.756-0.756-1.354-1.637-1.794-2.643c-0.44-1.007-0.661-2.078-0.661-3.211
		c-0.042-1.049,0.146-2.056,0.567-3.021c0.418-0.965,1.048-1.867,1.888-2.708l29.777-30.156H458.33c-1.134,0-2.204-0.22-3.212-0.66
		c-1.006-0.441-1.878-1.038-2.611-1.796c-0.734-0.753-1.322-1.637-1.763-2.642c-0.441-1.008-0.661-2.098-0.661-3.274
		c0-1.133,0.22-2.194,0.661-3.18c0.44-0.986,1.028-1.858,1.763-2.614c0.733-0.754,1.605-1.341,2.611-1.761
		c1.008-0.421,2.078-0.63,3.212-0.63H500.321z"/>
	<path d="M544.911,220.758c-4.242,0-8.217-0.809-11.931-2.425c-3.715-1.615-6.966-3.81-9.758-6.579
		c-2.792-2.769-4.996-6.012-6.609-9.728c-1.617-3.714-2.426-7.689-2.426-11.929c0-4.239,0.809-8.226,2.426-11.961
		c1.613-3.735,3.817-6.999,6.609-9.791c2.792-2.791,6.043-4.993,9.758-6.611c3.714-1.614,7.688-2.424,11.931-2.424
		c4.194,0,8.141,0.798,11.834,2.393c3.694,1.596,6.927,3.757,9.696,6.486c2.769,2.729,4.975,5.939,6.609,9.63
		c1.638,3.695,2.496,7.619,2.58,11.772v22.601c0,1.22-0.219,2.34-0.661,3.369c-0.44,1.027-1.048,1.931-1.824,2.708
		c-0.776,0.775-1.688,1.385-2.739,1.823c-1.048,0.441-2.162,0.664-3.336,0.664c-1.597,0-2.99-0.359-4.186-1.071
		c-1.197-0.713-2.152-1.678-2.865-2.896c-2.266,1.26-4.659,2.233-7.176,2.928C550.325,220.411,547.681,220.758,544.911,220.758z
		 M544.88,203.946c1.935,0,3.753-0.354,5.459-1.07c1.7-0.712,3.183-1.698,4.446-2.958c1.263-1.258,2.26-2.728,2.998-4.405
		c0.734-1.68,1.103-3.484,1.103-5.415c0-1.93-0.368-3.736-1.103-5.416c-0.738-1.676-1.735-3.146-2.998-4.406
		c-1.264-1.258-2.746-2.244-4.446-2.958c-1.706-0.713-3.524-1.07-5.459-1.07c-1.896,0-3.684,0.356-5.364,1.07
		c-1.684,0.714-3.165,1.7-4.451,2.958c-1.281,1.26-2.29,2.73-3.026,4.406c-0.735,1.679-1.104,3.485-1.104,5.416
		c0,1.931,0.368,3.735,1.104,5.415c0.736,1.678,1.745,3.147,3.026,4.405c1.286,1.26,2.768,2.246,4.451,2.958
		C541.196,203.593,542.983,203.946,544.88,203.946z"/>
	<path d="M582.126,190.593c0.128-4.279,1.051-8.31,2.771-12.088c1.72-3.776,4.02-7.081,6.894-9.915
		c2.874-2.833,6.212-5.077,10.012-6.736c3.796-1.659,7.836-2.528,12.117-2.612h0.567c2.769,0.042,4.9,0.84,6.391,2.392
		c1.488,1.554,2.233,3.526,2.233,5.918c0,1.218-0.231,2.33-0.692,3.336c-0.461,1.008-1.08,1.889-1.858,2.645
		c-0.773,0.756-1.698,1.344-2.769,1.762c-1.071,0.42-2.193,0.63-3.368,0.63c-2.1,0-4.081,0.398-5.949,1.195
		c-1.868,0.798-3.505,1.889-4.911,3.274c-1.405,1.385-2.528,3.013-3.365,4.879c-0.841,1.869-1.283,3.872-1.323,6.013v20.458
		c0,1.174-0.21,2.268-0.632,3.273c-0.421,1.007-1.006,1.879-1.761,2.614c-0.757,0.733-1.628,1.311-2.613,1.729
		c-0.987,0.419-2.046,0.632-3.179,0.632s-2.225-0.213-3.273-0.632c-1.052-0.419-1.963-0.996-2.739-1.729
		c-0.777-0.735-1.396-1.607-1.857-2.614c-0.463-1.006-0.694-2.1-0.694-3.273V190.593z"/>
	<path d="M637.673,236.51c-4.24,0-8.214-0.804-11.93-2.423c-3.716-1.615-6.968-3.809-9.759-6.579
		c-2.792-2.77-4.996-6.013-6.61-9.725c-1.618-3.716-2.423-7.692-2.423-11.931c0-4.239,0.805-8.225,2.423-11.961
		c1.614-3.735,3.818-6.998,6.61-9.791c2.791-2.79,6.043-4.994,9.759-6.608c3.716-1.616,7.689-2.425,11.93-2.425
		c4.195,0,8.141,0.799,11.835,2.392c3.694,1.597,6.926,3.757,9.694,6.484c2.771,2.73,4.975,5.942,6.611,9.633
		c1.636,3.694,2.496,7.617,2.58,11.772v22.601c0,1.217-0.219,2.339-0.659,3.369c-0.442,1.028-1.049,1.932-1.826,2.705
		c-0.777,0.778-1.69,1.385-2.739,1.827c-1.048,0.44-2.161,0.659-3.336,0.659c-1.596,0-2.989-0.355-4.185-1.069
		c-1.2-0.713-2.154-1.678-2.865-2.895c-2.268,1.258-4.659,2.236-7.179,2.925C643.088,236.164,640.441,236.51,637.673,236.51z
		 M637.643,219.702c1.934,0,3.753-0.356,5.458-1.068c1.7-0.713,3.184-1.703,4.445-2.96c1.263-1.261,2.263-2.729,2.998-4.407
		c0.735-1.68,1.104-3.484,1.104-5.414s-0.369-3.736-1.104-5.415c-0.735-1.677-1.735-3.147-2.998-4.407
		c-1.262-1.258-2.745-2.244-4.445-2.957c-1.705-0.713-3.524-1.071-5.458-1.071c-1.894,0-3.684,0.358-5.365,1.071
		s-3.166,1.699-4.447,2.957c-1.283,1.26-2.294,2.73-3.031,4.407c-0.734,1.679-1.103,3.485-1.103,5.415s0.368,3.734,1.103,5.414
		c0.737,1.679,1.748,3.146,3.031,4.407c1.281,1.257,2.766,2.247,4.447,2.96C633.959,219.346,635.749,219.702,637.643,219.702z"/>
</g>
<g>
	<path d="M258.108,247.084c0,13.857-11.234,25.093-25.091,25.093H116.146c-13.857,0-25.091-11.235-25.091-25.093v-116.87
		c0-13.858,11.234-25.093,25.091-25.093h116.871c13.857,0,25.091,11.235,25.091,25.093V247.084z"/>
	<g>
		<path fill="#FFFFFF" d="M155.052,169.954c0-5.662,1.079-10.987,3.238-15.978c2.157-4.989,5.101-9.347,8.83-13.076
			c3.728-3.729,8.073-6.671,13.035-8.831c4.962-2.157,10.272-3.237,15.936-3.237c5.662,0,10.987,1.08,15.978,3.237
			c4.989,2.159,9.334,5.102,13.035,8.831c3.7,3.729,6.629,8.087,8.788,13.076c2.158,4.991,3.238,10.316,3.238,15.978
			c0,4.093-0.561,7.989-1.682,11.689c-1.123,3.7-2.72,7.147-4.793,10.343c1.793,1.906,3.377,4.486,4.751,7.736
			c1.373,3.252,2.06,7.43,2.06,12.53c0,5.605-0.912,10.346-2.733,14.214c-1.822,3.868-4.247,7.008-7.274,9.419
			c-3.027,2.408-6.504,4.162-10.428,5.255c-3.925,1.094-7.989,1.639-12.193,1.639c-1.009,0-1.976-0.028-2.901-0.083
			c-0.925-0.057-1.865-0.085-2.817-0.085c-1.907,0-3.673,0.267-5.298,0.799c-1.627,0.532-3.448,1.641-5.466,3.322
			c-2.074,1.736-4.289,2.607-6.644,2.607c-1.514,0-2.985-0.31-4.415-0.925c-1.43-0.618-2.706-1.444-3.827-2.48
			c-1.122-1.039-2.018-2.246-2.691-3.62c-0.673-1.38-1.009-2.824-1.009-4.344c0-1.915,0.7-3.915,2.102-5.995
			c1.4-2.082,3.377-3.981,5.929-5.697c2.55-1.716,5.592-3.137,9.124-4.264c3.532-1.127,7.428-1.688,11.689-1.688
			c3.364,0,6.125-0.112,8.284-0.333c2.158-0.224,3.869-0.627,5.13-1.209c1.261-0.584,2.13-1.378,2.607-2.376
			c0.476-1.002,0.714-2.308,0.714-3.918c0-1.562-0.21-2.761-0.63-3.602s-0.799-1.457-1.135-1.851
			c-5.382,2.579-11.214,3.868-17.492,3.868c-5.664,0-10.974-1.078-15.936-3.237c-4.961-2.157-9.307-5.088-13.035-8.788
			c-3.729-3.7-6.672-8.031-8.83-12.992C156.13,180.928,155.052,175.616,155.052,169.954z M177.421,169.954
			c0,2.579,0.492,4.991,1.474,7.232c0.983,2.243,2.333,4.204,4.046,5.886c1.714,1.682,3.695,3,5.942,3.952
			c2.247,0.955,4.635,1.43,7.165,1.43c2.584,0,5.014-0.476,7.29-1.43c2.276-0.952,4.256-2.27,5.942-3.952s3.021-3.644,4.003-5.886
			c0.983-2.242,1.476-4.654,1.476-7.232c0-2.578-0.493-4.99-1.476-7.232c-0.983-2.242-2.317-4.204-4.003-5.886
			s-3.666-2.999-5.942-3.952c-2.276-0.954-4.706-1.43-7.29-1.43c-2.53,0-4.918,0.477-7.165,1.43
			c-2.247,0.953-4.228,2.27-5.942,3.952c-1.713,1.682-3.063,3.645-4.046,5.886C177.913,164.964,177.421,167.376,177.421,169.954z"/>
	</g>
</g>
<circle fill="#FFFFFF" cx="224.561" cy="143.534" r="13.757"/>
</svg>
