<svg xmlns="http://www.w3.org/2000/svg" xmlns:xlink="http://www.w3.org/1999/xlink" width="237.688" height="36.004" viewBox="0 0 237.688 36.004"><defs><style>.a{fill:url(#a);}.b{fill:url(#e);}</style><linearGradient id="a" x1="0.5" x2="0.953" y2="1" gradientUnits="objectBoundingBox"><stop offset="0" stop-color="#ffd500"/><stop offset="1" stop-color="#ffe667"/></linearGradient><linearGradient id="e" x2="0.5" y2="1" xlink:href="#a"/></defs><g transform="translate(-490 -4673)"><path class="a" d="M18.232,1.252l-4.591,9.309-10.273,1.5A2.251,2.251,0,0,0,2.123,15.9L9.555,23.14,7.8,33.37a2.249,2.249,0,0,0,3.262,2.37l9.19-4.83,9.19,4.83A2.25,2.25,0,0,0,32.7,33.37L30.945,23.14,38.377,15.9a2.251,2.251,0,0,0-1.245-3.839l-10.273-1.5L22.268,1.252a2.252,2.252,0,0,0-4.036,0Z" transform="translate(538.558 4673.001)"/><path class="a" d="M18.232,1.252l-4.591,9.309-10.273,1.5A2.251,2.251,0,0,0,2.123,15.9L9.555,23.14,7.8,33.37a2.249,2.249,0,0,0,3.262,2.37l9.19-4.83,9.19,4.83A2.25,2.25,0,0,0,32.7,33.37L30.945,23.14,38.377,15.9a2.251,2.251,0,0,0-1.245-3.839l-10.273-1.5L22.268,1.252a2.252,2.252,0,0,0-4.036,0Z" transform="translate(488.559 4673.001)"/><path class="a" d="M18.232,1.252l-4.591,9.309-10.273,1.5A2.251,2.251,0,0,0,2.123,15.9L9.555,23.14,7.8,33.37a2.249,2.249,0,0,0,3.262,2.37l9.19-4.83,9.19,4.83A2.25,2.25,0,0,0,32.7,33.37L30.945,23.14,38.377,15.9a2.251,2.251,0,0,0-1.245-3.839l-10.273-1.5L22.268,1.252a2.252,2.252,0,0,0-4.036,0Z" transform="translate(588.559 4673.001)"/><path class="a" d="M18.232,1.252l-4.591,9.309-10.273,1.5A2.251,2.251,0,0,0,2.123,15.9L9.555,23.14,7.8,33.37a2.249,2.249,0,0,0,3.262,2.37l9.19-4.83,9.19,4.83A2.25,2.25,0,0,0,32.7,33.37L30.945,23.14,38.377,15.9a2.251,2.251,0,0,0-1.245-3.839l-10.273-1.5L22.268,1.252a2.252,2.252,0,0,0-4.036,0Z" transform="translate(638.559 4673.001)"/><path class="b" d="M35.757,12.059l-10.292-1.5-4.6-9.309a2.258,2.258,0,0,0-4.044,0l-4.6,9.308L1.93,12.057A2.25,2.25,0,0,0,.683,15.9l7.445,7.242L6.366,33.367A2.255,2.255,0,0,0,8.589,36a2.222,2.222,0,0,0,1.046-.264l9.207-4.829,9.207,4.83a2.25,2.25,0,0,0,3.269-2.369l-1.76-10.23L37,15.9a2.25,2.25,0,0,0-1.247-3.839ZM27.2,20.722l-1.274,1.239.3,1.749L27.6,31.687l-7.181-3.768-1.574-.825,0-22.3,3.588,7.263.786,1.591,1.759.256,8.032,1.169L27.2,20.722Z" transform="translate(690 4673)"/></g></svg>