<svg xmlns="http://www.w3.org/2000/svg" width="208.058" height="201.552" viewBox="0 0 208.058 201.552"><defs><style>.a{fill:#17b806;}</style></defs><path class="a" d="M159.216,36.81c.275,1.671.477,3.351.607,5.029,2.184,28.226-4.188,59.725-25.118,80-17.891,17.33-48.506,26.49-73.526,23.795C34.829,142.794,4.972,125.026.43,98.67-3.6,75.272,21.468,61.123,43.436,57.81c6.66-1,18.888-.967,24.782-4.165C82.8,45.735,79.083,20.122,91.791,9.229,106.244-3.158,129.463-2.887,144.106,8.9,152.645,15.779,157.451,26.108,159.216,36.81Z" transform="translate(0 70.24) rotate(-26)"/></svg>